<svg xmlns="http://www.w3.org/2000/svg" viewBox="0 0 33 32">
<path fill="#c89365" style="fill: var(--color1, #c89365); stroke: var(--color1, #c89365)" stroke="#c89365" stroke-linejoin="miter" stroke-linecap="butt" stroke-miterlimit="4" stroke-width="0.4" d="M32.878 31.714h-32.327c-0.146 0-0.265-0.11-0.265-0.245v-3.438c0-2.108 1.178-2.915 3.352-3.668 2.289-0.792 4.109-1.525 5.264-2.118 0.030-0.016 0.064-0.026 0.098-0.030s0.070-0.001 0.103 0.008c0.034 0.009 0.065 0.024 0.092 0.044s0.050 0.045 0.067 0.073c0.071 0.119 0.025 0.269-0.103 0.334-1.177 0.606-3.022 1.349-5.335 2.149-2.038 0.705-3.007 1.365-3.007 3.207v3.192h31.797v-3.192c0-1.843-0.97-2.502-3.007-3.207-2.353-0.816-4.148-1.539-5.336-2.149-0.061-0.032-0.107-0.084-0.126-0.147s-0.011-0.13 0.023-0.187c0.017-0.028 0.040-0.053 0.067-0.073s0.058-0.035 0.092-0.044c0.033-0.009 0.069-0.012 0.103-0.008s0.068 0.014 0.099 0.029c1.165 0.599 2.936 1.312 5.265 2.118 2.173 0.753 3.351 1.56 3.351 3.668v3.438c0 0.032-0.007 0.064-0.020 0.094s-0.033 0.057-0.057 0.079c-0.025 0.023-0.054 0.041-0.086 0.053s-0.067 0.019-0.101 0.019z"></path>
<path fill="#c89365" style="fill: var(--color1, #c89365); stroke: var(--color1, #c89365)" stroke="#c89365" stroke-linejoin="miter" stroke-linecap="butt" stroke-miterlimit="4" stroke-width="0.4" d="M16.714 22.875c-3.68 0-9.539-4.832-9.539-10.558 0-0.136 0.119-0.246 0.265-0.246s0.265 0.11 0.265 0.246c0 5.46 5.534 10.067 9.009 10.067s9.009-4.607 9.009-10.067c0-0.136 0.119-0.246 0.265-0.246 0.035-0 0.069 0.006 0.101 0.019s0.061 0.030 0.086 0.053c0.025 0.023 0.044 0.050 0.057 0.080s0.020 0.062 0.020 0.094c-0 5.726-5.86 10.558-9.539 10.558zM16.73 24.839c-0.146 0-0.268-0.11-0.268-0.245s0.116-0.246 0.262-0.246h0.005c0.146 0 0.265 0.11 0.265 0.246 0 0.032-0.007 0.064-0.020 0.094s-0.033 0.057-0.057 0.080c-0.025 0.023-0.054 0.041-0.086 0.053s-0.067 0.019-0.101 0.019zM16.73 26.804c-0.146 0-0.268-0.11-0.268-0.245s0.116-0.246 0.262-0.246h0.005c0.146 0 0.265 0.11 0.265 0.246 0 0.032-0.007 0.064-0.020 0.094s-0.033 0.057-0.057 0.080c-0.025 0.023-0.054 0.041-0.086 0.053s-0.067 0.019-0.101 0.019zM16.73 28.768c-0.146 0-0.268-0.11-0.268-0.246s0.116-0.246 0.262-0.246h0.005c0.146 0 0.265 0.11 0.265 0.246 0 0.032-0.007 0.064-0.020 0.094s-0.033 0.057-0.057 0.080c-0.025 0.023-0.054 0.041-0.086 0.053s-0.067 0.019-0.101 0.019zM16.73 30.732c-0.146 0-0.268-0.11-0.268-0.246s0.116-0.245 0.262-0.245h0.005c0.146 0 0.265 0.11 0.265 0.245 0 0.032-0.007 0.064-0.020 0.094s-0.033 0.057-0.057 0.080-0.054 0.041-0.086 0.053c-0.032 0.012-0.067 0.019-0.101 0.019z"></path>
<path fill="#c89365" style="fill: var(--color1, #c89365); stroke: var(--color1, #c89365)" stroke="#c89365" stroke-linejoin="miter" stroke-linecap="butt" stroke-miterlimit="4" stroke-width="0.4" d="M23.339 21.893c-0.146 0-0.265-0.11-0.265-0.246v-0.982c0-0.136 0.119-0.245 0.265-0.245s0.265 0.11 0.265 0.245v0.982c0 0.136-0.119 0.246-0.265 0.246z"></path>
<path fill="#c89365" style="fill: var(--color1, #c89365); stroke: var(--color1, #c89365)" stroke="#c89365" stroke-linejoin="miter" stroke-linecap="butt" stroke-miterlimit="4" stroke-width="0.4" d="M20.689 25.33c-0.055 0-0.109-0.016-0.154-0.046-0.028-0.019-0.052-0.042-0.071-0.070s-0.031-0.058-0.036-0.090c-0.006-0.032-0.005-0.064 0.003-0.096s0.022-0.061 0.043-0.087l2.65-3.438c0.041-0.053 0.103-0.088 0.172-0.099s0.14 0.005 0.197 0.042c0.028 0.019 0.052 0.042 0.071 0.070s0.031 0.058 0.036 0.090c0.006 0.032 0.005 0.064-0.003 0.096s-0.022 0.061-0.043 0.087l-2.65 3.438c-0.024 0.032-0.057 0.058-0.094 0.076s-0.079 0.027-0.121 0.027z"></path>
<path fill="#c89365" style="fill: var(--color1, #c89365); stroke: var(--color1, #c89365)" stroke="#c89365" stroke-linejoin="miter" stroke-linecap="butt" stroke-miterlimit="4" stroke-width="0.4" d="M20.689 25.33c-0.041-0-0.082-0.009-0.119-0.026l-3.18-1.473c-0.031-0.014-0.059-0.034-0.082-0.059s-0.040-0.053-0.051-0.083c-0.011-0.031-0.015-0.063-0.013-0.095s0.012-0.064 0.027-0.092c0.032-0.058 0.087-0.102 0.153-0.123s0.139-0.016 0.202 0.013l3.18 1.473c0.040 0 0.079 0.008 0.115 0.024s0.068 0.040 0.092 0.069c0.025 0.029 0.042 0.063 0.051 0.099s0.008 0.074-0.001 0.11c-0.009 0.036-0.027 0.070-0.052 0.098s-0.057 0.052-0.093 0.068c-0.036 0.016-0.076 0.024-0.116 0.023s-0.079-0.009-0.115-0.026zM10.090 21.893c-0.146 0-0.265-0.11-0.265-0.246v-0.982c-0-0.032 0.007-0.064 0.020-0.094s0.033-0.057 0.057-0.080c0.025-0.023 0.054-0.041 0.086-0.053s0.067-0.019 0.101-0.019c0.146 0 0.265 0.11 0.265 0.245v0.982c0 0.136-0.118 0.246-0.265 0.246z"></path>
<path fill="#c89365" style="fill: var(--color1, #c89365); stroke: var(--color1, #c89365)" stroke="#c89365" stroke-linejoin="miter" stroke-linecap="butt" stroke-miterlimit="4" stroke-width="0.4" d="M12.74 25.33c-0.042 0-0.084-0.009-0.121-0.027s-0.070-0.044-0.094-0.076l-2.65-3.438c-0.020-0.026-0.035-0.056-0.043-0.087s-0.009-0.064-0.003-0.096c0.006-0.032 0.018-0.062 0.037-0.090s0.043-0.051 0.071-0.070c0.028-0.019 0.060-0.032 0.094-0.040s0.069-0.008 0.103-0.003c0.034 0.005 0.067 0.017 0.097 0.034s0.055 0.039 0.075 0.066l2.65 3.438c0.020 0.026 0.035 0.056 0.043 0.087s0.009 0.064 0.003 0.096c-0.006 0.032-0.018 0.062-0.037 0.090s-0.042 0.051-0.071 0.070c-0.045 0.030-0.099 0.046-0.154 0.046z"></path>
<path fill="#c89365" style="fill: var(--color1, #c89365); stroke: var(--color1, #c89365)" stroke="#c89365" stroke-linejoin="miter" stroke-linecap="butt" stroke-miterlimit="4" stroke-width="0.4" d="M12.74 25.33c-0.049 0-0.098-0.013-0.139-0.037s-0.076-0.058-0.098-0.099c-0.016-0.029-0.025-0.060-0.027-0.092s0.002-0.064 0.013-0.095c0.011-0.031 0.028-0.059 0.051-0.083s0.051-0.044 0.082-0.059l3.18-1.473c0.063-0.029 0.136-0.034 0.202-0.013s0.122 0.065 0.153 0.123c0.016 0.029 0.025 0.060 0.027 0.092s-0.002 0.064-0.013 0.095c-0.011 0.031-0.028 0.059-0.051 0.083s-0.051 0.044-0.082 0.059l-3.18 1.473c-0.037 0.017-0.077 0.026-0.118 0.026zM7.44 11.58c-0.066-0-0.13-0.023-0.178-0.064s-0.079-0.098-0.085-0.159c-0.333-3.29 0.428-5.904 2.261-7.768 2.683-2.73 7.084-3.303 10.305-3.303 1.881 0 3.278 0.201 3.431 0.224 0.057 0.009 0.109 0.034 0.149 0.073s0.065 0.088 0.072 0.141c0.007 0.053-0.006 0.107-0.035 0.153s-0.074 0.082-0.127 0.102c-1.895 0.723-1.588 2.471-1.429 3.040 0.061-0.003 0.123-0.004 0.184-0.004 0.753 0 2.173 0.17 3.225 1.308 1.155 1.25 1.505 3.285 1.040 6.048-0.008 0.050-0.033 0.096-0.071 0.132s-0.086 0.061-0.14 0.071c-0.11 0.022-0.219-0.025-0.278-0.113l-2.211-3.351c-0.838 0.301-3.978 1.352-6.912 1.352-2.926 0-6.026-1.045-6.867-1.35l-2.102 3.344c-0.023 0.037-0.057 0.068-0.097 0.089s-0.086 0.033-0.132 0.033zM23.66 7.562c0.090 0 0.177 0.042 0.226 0.117l1.94 2.938c0.28-2.268-0.062-3.939-1.017-4.974-0.914-0.989-2.161-1.136-2.823-1.136-0.206 0-0.333 0.015-0.341 0.016-0.124 0.015-0.245-0.053-0.287-0.163-0.009-0.025-0.818-2.257 0.942-3.46-0.601-0.059-1.5-0.124-2.558-0.124-3.113 0-7.36 0.545-9.913 3.143-1.581 1.608-2.314 3.826-2.184 6.601l1.784-2.837c0.032-0.051 0.084-0.090 0.145-0.109s0.127-0.017 0.187 0.006c0.036 0.014 3.636 1.392 6.879 1.392 3.244 0 6.884-1.378 6.921-1.392 0.032-0.012 0.066-0.019 0.101-0.019zM17.509 31.714c-0.035 0-0.069-0.006-0.101-0.019s-0.061-0.031-0.086-0.053c-0.025-0.023-0.044-0.050-0.057-0.079s-0.020-0.062-0.020-0.094v-6.875c0-0.136 0.119-0.246 0.265-0.246s0.265 0.11 0.265 0.246v6.875c0 0.136-0.119 0.245-0.265 0.245zM15.919 31.714c-0.146 0-0.265-0.11-0.265-0.245v-6.875c0-0.136 0.118-0.246 0.265-0.246s0.265 0.11 0.265 0.246v6.875c0 0.032-0.007 0.064-0.020 0.094s-0.033 0.057-0.057 0.079c-0.025 0.023-0.054 0.041-0.086 0.053s-0.067 0.019-0.101 0.019zM27.048 29.75h-5.3c-0.146 0-0.265-0.11-0.265-0.245s0.119-0.246 0.265-0.246h5.3c0.146 0 0.265 0.11 0.265 0.246s-0.119 0.245-0.265 0.245z"></path>
<path fill="#c89365" style="fill: var(--color1, #c89365); stroke: var(--color1, #c89365)" stroke="#c89365" stroke-linejoin="miter" stroke-linecap="butt" stroke-miterlimit="4" stroke-width="0.4" d="M21.749 30.732c-0.035 0-0.069-0.007-0.101-0.019s-0.061-0.030-0.086-0.053c-0.025-0.023-0.044-0.050-0.057-0.080s-0.020-0.062-0.020-0.094v-0.982c-0-0.032 0.007-0.064 0.020-0.094s0.033-0.057 0.057-0.080 0.054-0.041 0.086-0.053c0.032-0.013 0.067-0.019 0.101-0.019 0.146 0 0.265 0.11 0.265 0.246v0.982c0 0.032-0.007 0.064-0.020 0.094s-0.033 0.057-0.057 0.080-0.054 0.041-0.086 0.053c-0.032 0.012-0.067 0.019-0.101 0.019z"></path>
<path fill="#c89365" style="fill: var(--color1, #c89365); stroke: var(--color1, #c89365)" stroke="#c89365" stroke-linejoin="miter" stroke-linecap="butt" stroke-miterlimit="4" stroke-width="0.4" d="M27.048 30.732c-0.035 0-0.069-0.007-0.101-0.019s-0.061-0.030-0.086-0.053c-0.025-0.023-0.044-0.050-0.057-0.080s-0.020-0.062-0.020-0.094v-0.982c0-0.136 0.118-0.246 0.265-0.246s0.265 0.11 0.265 0.246v0.982c0 0.032-0.007 0.064-0.020 0.094s-0.033 0.057-0.057 0.080-0.054 0.041-0.086 0.053c-0.032 0.012-0.067 0.019-0.101 0.019z"></path>
<path fill="#c89365" style="fill: var(--color1, #c89365); stroke: var(--color1, #c89365)" stroke="#c89365" stroke-linejoin="miter" stroke-linecap="butt" stroke-miterlimit="4" stroke-width="0.4" d="M22.279 29.259c-0.052 0-0.104-0.014-0.147-0.041s-0.078-0.065-0.098-0.11-0.025-0.094-0.015-0.142c0.010-0.047 0.035-0.091 0.073-0.126l1.59-1.473c0.050-0.044 0.117-0.069 0.186-0.068s0.136 0.026 0.184 0.072c0.049 0.045 0.077 0.107 0.078 0.171s-0.026 0.126-0.074 0.172l-1.59 1.473c-0.025 0.023-0.054 0.041-0.086 0.053s-0.067 0.019-0.101 0.019z"></path>
<path fill="#c89365" style="fill: var(--color1, #c89365); stroke: var(--color1, #c89365)" stroke="#c89365" stroke-linejoin="miter" stroke-linecap="butt" stroke-miterlimit="4" stroke-width="0.4" d="M25.459 29.259c-0.035 0-0.069-0.006-0.101-0.019s-0.061-0.031-0.086-0.053l-1.59-1.473c-0.048-0.046-0.074-0.108-0.074-0.172s0.029-0.126 0.078-0.171c0.049-0.045 0.115-0.071 0.184-0.072s0.136 0.024 0.186 0.068l1.59 1.473c0.037 0.035 0.062 0.078 0.073 0.126s0.005 0.097-0.015 0.142-0.054 0.083-0.098 0.11c-0.044 0.027-0.095 0.041-0.147 0.041z"></path>
<path fill="#c89365" style="fill: var(--color1, #c89365); stroke: var(--color1, #c89365)" stroke="#c89365" stroke-linejoin="miter" stroke-linecap="butt" stroke-miterlimit="4" stroke-width="0.4" d="M26.518 29.259c-0.035 0-0.069-0.006-0.101-0.019s-0.061-0.031-0.086-0.053l-1.59-1.473c-0.025-0.023-0.046-0.050-0.059-0.080s-0.021-0.062-0.021-0.095c-0-0.033 0.006-0.065 0.020-0.095s0.033-0.058 0.058-0.081c0.025-0.023 0.054-0.041 0.087-0.054s0.067-0.019 0.103-0.018c0.035 0 0.070 0.007 0.102 0.020s0.062 0.032 0.086 0.055l1.59 1.473c0.037 0.034 0.062 0.078 0.073 0.126s0.005 0.097-0.015 0.142-0.054 0.083-0.098 0.11c-0.044 0.027-0.095 0.041-0.147 0.041z"></path>
</svg>