<svg xmlns="http://www.w3.org/2000/svg" viewBox="0 0 32 32">
<path fill="#c89365" style="fill: var(--color1, #c89365)" d="M11.257 22.379c-2.932 0-5.688-1.149-7.762-3.236-4.28-4.307-4.28-11.315 0-15.622 2.073-2.087 4.829-3.235 7.761-3.235s5.688 1.149 7.761 3.235c2.074 2.087 3.216 4.861 3.216 7.811s-1.142 5.725-3.215 7.811c-2.073 2.087-4.83 3.236-7.762 3.236zM11.257 0.777c-2.801 0-5.435 1.098-7.416 3.092-4.089 4.115-4.089 10.812 0 14.928 1.981 1.994 4.615 3.092 7.417 3.092s5.435-1.098 7.417-3.092c1.981-1.994 3.072-4.644 3.072-7.464s-1.091-5.47-3.073-7.464c-1.981-1.994-4.614-3.092-7.416-3.092z"></path>
<path fill="#c89365" style="fill: var(--color1, #c89365)" d="M11.257 21.396c-2.671 0-5.183-1.047-7.071-2.947s-2.929-4.428-2.929-7.116c0-2.689 1.040-5.216 2.929-7.117s4.4-2.948 7.072-2.948c2.671 0 5.182 1.047 7.071 2.947 3.898 3.924 3.899 10.309 0.001 14.234-1.889 1.901-4.401 2.947-7.072 2.947zM11.257 1.759c-2.541 0-4.93 0.996-6.727 2.804s-2.786 4.212-2.786 6.77c0 2.557 0.989 4.962 2.786 6.769s4.185 2.803 6.726 2.803c2.542 0 4.931-0.995 6.727-2.803 3.707-3.733 3.707-9.807-0.001-13.54-1.796-1.807-4.185-2.803-6.726-2.803z"></path>
<path fill="#c89365" style="fill: var(--color1, #c89365)" d="M3.452 11.578c-0.032 0-0.064-0.006-0.093-0.019s-0.057-0.030-0.079-0.053c-0.023-0.023-0.041-0.050-0.053-0.080s-0.019-0.062-0.018-0.094c-0.001-2.163 0.837-4.198 2.357-5.728s3.542-2.373 5.692-2.373c0.032 0 0.064 0.006 0.093 0.019s0.056 0.030 0.079 0.053c0.023 0.023 0.041 0.050 0.053 0.080s0.018 0.062 0.018 0.094c0 0.032-0.006 0.064-0.019 0.094s-0.030 0.057-0.053 0.080c-0.023 0.023-0.050 0.041-0.079 0.053s-0.061 0.019-0.093 0.019c-2.019 0-3.918 0.792-5.347 2.229s-2.214 3.348-2.214 5.38c0 0.032-0.006 0.064-0.019 0.094s-0.030 0.057-0.053 0.080c-0.023 0.023-0.050 0.041-0.079 0.053s-0.061 0.019-0.093 0.019zM20.724 22.841c-0.032 0-0.064-0.006-0.093-0.019s-0.056-0.030-0.079-0.053l-2.223-2.237c-0.095-0.096-0.095-0.251 0-0.347s0.25-0.096 0.345 0l2.223 2.237c0.023 0.023 0.041 0.050 0.053 0.080s0.019 0.062 0.019 0.094c0 0.032-0.006 0.064-0.019 0.094s-0.030 0.057-0.053 0.080c-0.023 0.023-0.049 0.041-0.079 0.053s-0.061 0.019-0.093 0.019zM22.449 21.106c-0.032 0-0.064-0.006-0.093-0.019s-0.056-0.030-0.079-0.053l-2.223-2.238c-0.023-0.023-0.041-0.050-0.053-0.080s-0.019-0.062-0.019-0.094c0-0.032 0.006-0.064 0.019-0.094s0.030-0.057 0.053-0.080c0.023-0.023 0.049-0.041 0.079-0.053s0.061-0.019 0.093-0.019c0.032 0 0.064 0.006 0.093 0.019s0.056 0.030 0.079 0.053l2.223 2.238c0.034 0.034 0.057 0.078 0.067 0.126s0.005 0.097-0.014 0.142c-0.018 0.045-0.050 0.083-0.090 0.11s-0.087 0.041-0.136 0.041z"></path>
<path fill="#c89365" style="fill: var(--color1, #c89365)" d="M20.379 23.189c-0.048 0-0.095-0.014-0.136-0.041s-0.071-0.065-0.090-0.11c-0.018-0.045-0.023-0.094-0.014-0.142s0.033-0.091 0.067-0.126l2.414-2.43c0.095-0.096 0.25-0.096 0.345 0s0.095 0.251 0 0.347l-2.414 2.43c-0.023 0.023-0.049 0.041-0.079 0.053s-0.061 0.019-0.093 0.019z"></path>
<path fill="#c89365" style="fill: var(--color1, #c89365)" d="M29.508 27.516c-0.032 0-0.064-0.006-0.093-0.019s-0.057-0.030-0.079-0.053l-6.714-6.757c-0.023-0.023-0.041-0.050-0.053-0.080s-0.019-0.062-0.019-0.094c0-0.032 0.006-0.064 0.019-0.094s0.030-0.057 0.053-0.080c0.023-0.023 0.049-0.041 0.079-0.053s0.061-0.019 0.093-0.019c0.032 0 0.064 0.006 0.093 0.019s0.056 0.030 0.079 0.053l6.714 6.757c0.034 0.034 0.057 0.078 0.067 0.126s0.005 0.097-0.014 0.142c-0.018 0.045-0.050 0.083-0.090 0.11s-0.087 0.041-0.135 0.041zM27.126 29.978c-0.032 0-0.064-0.006-0.093-0.019s-0.056-0.031-0.079-0.053l-6.747-6.789c-0.023-0.023-0.041-0.050-0.053-0.080s-0.019-0.062-0.019-0.094c0-0.032 0.006-0.064 0.019-0.094s0.030-0.057 0.053-0.080c0.023-0.023 0.049-0.041 0.079-0.053s0.061-0.019 0.093-0.019c0.032 0 0.064 0.006 0.093 0.019s0.056 0.030 0.079 0.053l6.747 6.789c0.034 0.035 0.057 0.078 0.067 0.126s0.005 0.097-0.014 0.142-0.050 0.083-0.090 0.11c-0.040 0.027-0.087 0.041-0.136 0.041z"></path>
<path fill="#c89365" style="fill: var(--color1, #c89365)" d="M28.335 30.482c-0.522 0-1.012-0.205-1.381-0.577-0.023-0.023-0.041-0.050-0.053-0.079s-0.019-0.062-0.019-0.094c0-0.032 0.006-0.064 0.019-0.094s0.030-0.057 0.053-0.080c0.046-0.046 0.108-0.072 0.173-0.072s0.127 0.026 0.173 0.072c0.276 0.279 0.644 0.433 1.036 0.433h0c0.192 0.001 0.382-0.037 0.559-0.111s0.338-0.183 0.474-0.32c0.277-0.278 0.429-0.649 0.429-1.042s-0.152-0.763-0.429-1.042c-0.023-0.023-0.041-0.050-0.053-0.080s-0.019-0.062-0.019-0.094 0.007-0.064 0.019-0.094c0.012-0.030 0.030-0.057 0.053-0.080s0.049-0.041 0.079-0.053c0.030-0.012 0.061-0.019 0.093-0.019s0.064 0.006 0.093 0.019c0.029 0.012 0.056 0.030 0.079 0.053 0.369 0.372 0.573 0.865 0.573 1.389s-0.203 1.018-0.573 1.389c-0.367 0.37-0.857 0.575-1.378 0.575h-0v0zM24.712 31.714c-0.032 0-0.064-0.006-0.093-0.019s-0.056-0.031-0.079-0.053c-0.023-0.023-0.041-0.050-0.053-0.079s-0.019-0.062-0.019-0.094 0.006-0.064 0.019-0.094c0.012-0.030 0.030-0.057 0.053-0.080l1.725-1.737c0.023-0.023 0.049-0.041 0.079-0.053s0.061-0.019 0.093-0.019c0.032 0 0.064 0.006 0.093 0.019s0.056 0.031 0.079 0.053c0.023 0.023 0.041 0.050 0.053 0.080s0.019 0.062 0.019 0.094c0 0.032-0.006 0.064-0.019 0.094s-0.030 0.057-0.053 0.079l-1.725 1.737c-0.023 0.023-0.049 0.041-0.079 0.053s-0.061 0.019-0.093 0.019z"></path>
<path fill="#c89365" style="fill: var(--color1, #c89365)" d="M24.712 31.714c-0.032 0-0.064-0.006-0.093-0.019s-0.056-0.031-0.079-0.053l-1.38-1.389c-0.023-0.023-0.041-0.050-0.053-0.079s-0.019-0.062-0.019-0.094 0.006-0.064 0.019-0.094c0.012-0.030 0.030-0.057 0.053-0.080l0.172-0.173-0.345-0.347-0.172 0.173c-0.023 0.023-0.049 0.041-0.079 0.053s-0.061 0.019-0.093 0.019c-0.032 0-0.064-0.006-0.093-0.019s-0.056-0.031-0.079-0.053l-0.345-0.347c-0.032-0.032-0.055-0.073-0.065-0.117s-0.008-0.091 0.006-0.134l0.297-0.897-0.066-0.067-0.518 0.521c-0.046 0.046-0.108 0.072-0.173 0.072s-0.127-0.026-0.172-0.072l-0.69-0.694c-0.023-0.023-0.041-0.050-0.053-0.080s-0.019-0.062-0.019-0.094c0-0.032 0.006-0.064 0.019-0.094s0.030-0.057 0.053-0.080c0.023-0.023 0.050-0.041 0.079-0.053s0.061-0.019 0.093-0.019c0.032 0 0.064 0.006 0.093 0.019s0.056 0.030 0.079 0.053l0.517 0.521 0.518-0.521c0.046-0.046 0.108-0.072 0.172-0.072s0.127 0.026 0.172 0.072l0.345 0.347c0.032 0.032 0.055 0.073 0.065 0.117s0.008 0.091-0.006 0.134l-0.297 0.898 0.066 0.066 0.172-0.173c0.023-0.023 0.050-0.041 0.079-0.053s0.061-0.019 0.093-0.019 0.064 0.006 0.093 0.019c0.030 0.013 0.056 0.031 0.079 0.053l0.69 0.694c0.023 0.023 0.041 0.050 0.053 0.080s0.019 0.062 0.019 0.094c0 0.032-0.006 0.064-0.019 0.094s-0.030 0.057-0.053 0.079l-0.172 0.174 1.207 1.216c0.023 0.023 0.041 0.050 0.053 0.080s0.019 0.062 0.019 0.094c0 0.032-0.006 0.064-0.019 0.094s-0.030 0.057-0.053 0.079c-0.023 0.023-0.049 0.041-0.079 0.053s-0.061 0.019-0.093 0.019z"></path>
<path fill="#c89365" style="fill: var(--color1, #c89365)" d="M20.917 27.895c-0.048 0-0.095-0.014-0.136-0.041s-0.071-0.065-0.090-0.11c-0.018-0.045-0.023-0.094-0.014-0.142s0.033-0.091 0.067-0.126l1.726-1.736c0.023-0.023 0.049-0.041 0.079-0.053s0.061-0.019 0.093-0.019c0.032 0 0.064 0.006 0.093 0.019s0.056 0.030 0.079 0.053c0.023 0.023 0.041 0.050 0.053 0.080s0.019 0.062 0.019 0.094c0 0.032-0.006 0.064-0.019 0.094s-0.030 0.057-0.053 0.080l-1.725 1.736c-0.023 0.023-0.049 0.041-0.079 0.053s-0.061 0.019-0.093 0.019zM24.022 31.020c-0.048 0-0.095-0.014-0.136-0.041s-0.071-0.065-0.090-0.11-0.023-0.094-0.014-0.142c0.009-0.048 0.033-0.091 0.067-0.126l0.172-0.174c0.023-0.023 0.049-0.041 0.079-0.053s0.061-0.019 0.093-0.019c0.032 0 0.064 0.006 0.093 0.019s0.056 0.031 0.079 0.053c0.023 0.023 0.041 0.050 0.053 0.080s0.019 0.062 0.019 0.094c0 0.032-0.006 0.064-0.019 0.094s-0.030 0.057-0.053 0.080l-0.172 0.174c-0.023 0.023-0.049 0.041-0.079 0.053s-0.061 0.019-0.093 0.019zM28.851 28.242c-0.032 0-0.064-0.006-0.093-0.019s-0.057-0.030-0.079-0.053l-6.057-6.096c-0.023-0.023-0.041-0.050-0.053-0.080s-0.019-0.062-0.019-0.094c0-0.032 0.006-0.064 0.019-0.094s0.030-0.057 0.053-0.080c0.023-0.023 0.049-0.041 0.079-0.053s0.061-0.019 0.093-0.019c0.032 0 0.064 0.006 0.093 0.019s0.056 0.030 0.079 0.053l6.057 6.096c0.034 0.034 0.057 0.078 0.067 0.126s0.005 0.097-0.014 0.142c-0.019 0.045-0.050 0.083-0.090 0.11s-0.087 0.041-0.135 0.041z"></path>
</svg>