<svg xmlns="http://www.w3.org/2000/svg" viewBox="0 0 32 32">
<path fill="#c89365" style="fill: var(--color1, #c89365)" d="M14.881 13.045h-0.462v-1.427h1.172c0.294 0 0.533-0.228 0.533-0.51s-0.239-0.51-0.533-0.51h-1.172v-0.578c0-0.281-0.239-0.51-0.533-0.51s-0.533 0.228-0.533 0.51v0.578h-0.462c-0.685 0-1.243 0.533-1.243 1.189v1.087c0 0.656 0.558 1.189 1.243 1.189h0.462v1.427h-1.172c-0.294 0-0.533 0.228-0.533 0.51s0.239 0.51 0.533 0.51h1.172v0.577c0 0.281 0.239 0.51 0.533 0.51s0.533-0.228 0.533-0.51v-0.577h0.462c0.685 0 1.243-0.533 1.243-1.189v-1.087c-0-0.655-0.558-1.189-1.243-1.189zM13.353 13.045h-0.462c-0.098 0-0.178-0.076-0.178-0.17v-1.087c0-0.094 0.080-0.17 0.178-0.17h0.462l-0 1.427zM15.058 15.321c0 0.094-0.080 0.17-0.178 0.17h-0.462v-1.427h0.462c0.098 0 0.178 0.076 0.178 0.17v1.087z"></path>
<path fill="#c89365" style="fill: var(--color1, #c89365)" d="M33.299 13.536l-2.411-2.306c-0.208-0.199-0.545-0.199-0.753 0l-2.362 2.259v-12.98c0-0.281-0.238-0.51-0.533-0.51h-26.707c-0.294 0-0.533 0.228-0.533 0.51v24.73c0 0.281 0.238 0.51 0.533 0.51s0.533-0.228 0.533-0.51v-24.221h25.641v13.49l-3.867 3.699h-1.318v-9.308h1.74c0.294 0 0.533-0.228 0.533-0.51v-1.631c0-0.281-0.238-0.51-0.533-0.51h-2.117l-6.972-4.268c-0.175-0.107-0.399-0.107-0.574 0l-6.972 4.268h-2.117c-0.294 0-0.533 0.228-0.533 0.51v1.631c0 0.281 0.239 0.51 0.533 0.51h1.74v9.308h-1.74c-0.294 0-0.533 0.228-0.533 0.51v1.631c0 0.281 0.239 0.51 0.533 0.51h15.559l-3.981 3.808c-0.001 0.001-0.002 0.002-0.003 0.004-0.063 0.056-0.113 0.128-0.142 0.212l-1.205 3.459c-0.136 0.39 0.265 0.775 0.674 0.645l3.616-1.153c0.088-0.028 0.163-0.076 0.222-0.137 0.002-0.002 0.005-0.004 0.007-0.006l3.261-3.179c0.206-0.201 0.203-0.524-0.007-0.721s-0.547-0.194-0.753 0.007l-2.884 2.812-1.654-1.582 11.267-10.777 1.657 1.585-6.047 5.784c-0.208 0.199-0.208 0.522 0 0.721s0.545 0.199 0.753 0l1.858-1.777v5.527h-4.581c-0.294 0-0.533 0.228-0.533 0.51v4.382h-20.527v-3.023c0-0.281-0.238-0.51-0.533-0.51s-0.533 0.228-0.533 0.51v3.533c0 0.281 0.238 0.509 0.533 0.509h21.593c0.14 0 0.278-0.055 0.377-0.149l5.114-4.892c0.099-0.094 0.156-0.227 0.156-0.36v-7.056l5.526-5.286c0.208-0.199 0.208-0.522 0-0.721zM17.898 27.117l-1.813 0.578 0.604-1.734 1.209 1.156zM13.886 3.017l5.282 3.234h-10.565l5.282-3.234zM5.043 7.881v-0.611h17.686v0.611h-17.686zM20.456 8.9v9.308h-1.776v-9.308h1.776zM17.615 8.9v9.308h-7.458v-9.308h7.458zM9.092 8.9v9.308h-1.776v-9.308h1.776zM21.135 19.839h-16.092v-0.611h16.731l-0.639 0.611zM22.658 30.26v-3.152h3.295l-3.295 3.152zM30.896 15.114l-1.657-1.585 1.272-1.217 1.657 1.585-1.272 1.217z"></path>
<path fill="#c89365" style="fill: var(--color1, #c89365)" d="M13.602 25.274h-6.819c-0.294 0-0.533 0.228-0.533 0.51s0.239 0.51 0.533 0.51h6.819c0.294 0 0.533-0.228 0.533-0.51s-0.239-0.51-0.533-0.51z"></path>
<path fill="#c89365" style="fill: var(--color1, #c89365)" d="M14.17 27.991h-7.387c-0.294 0-0.533 0.228-0.533 0.51s0.239 0.51 0.533 0.51h7.387c0.294 0 0.533-0.228 0.533-0.51s-0.239-0.51-0.533-0.51z"></path>
<path fill="#c89365" style="fill: var(--color1, #c89365)" d="M13.602 22.556h-6.819c-0.294 0-0.533 0.228-0.533 0.51s0.239 0.51 0.533 0.51h6.819c0.294 0 0.533-0.228 0.533-0.51s-0.239-0.51-0.533-0.51z"></path>
</svg>