<svg xmlns="http://www.w3.org/2000/svg" viewBox="0 0 32 32">
  <path fill="#c0c7cf" style="fill: var(--color1, #c0c7cf); stroke: var(--color1, #c0c7cf)" stroke="#c0c7cf" stroke-linejoin="miter" stroke-linecap="butt" stroke-miterlimit="4" stroke-width="0.6452" d="M12.903 2.064c-5.977 0-10.839 4.862-10.839 10.839s4.862 10.839 10.839 10.839c5.977 0 10.839-4.862 10.839-10.839s-4.862-10.839-10.839-10.839zM12.903 22.71c-5.407 0-9.806-4.399-9.806-9.806s4.399-9.806 9.806-9.806c5.407 0 9.806 4.399 9.806 9.806s-4.399 9.806-9.806 9.806z"></path>
  <path fill="#c0c7cf" style="fill: var(--color1, #c0c7cf); stroke: var(--color1, #c0c7cf)" stroke="#c0c7cf" stroke-linejoin="miter" stroke-linecap="butt" stroke-miterlimit="4" stroke-width="0.6452" d="M31.207 27.381l-5.703-5.703 0.667-0.667-0.73-0.73-0.667 0.667-1.042-1.042c1.309-2.019 2.074-4.423 2.074-7.003 0-7.115-5.788-12.903-12.903-12.903s-12.903 5.788-12.903 12.903c0 7.115 5.788 12.903 12.903 12.903 2.58 0 4.984-0.764 7.003-2.074l1.042 1.042-0.667 0.667 0.73 0.73 0.667-0.667 5.703 5.703c0.511 0.511 1.191 0.793 1.913 0.793 1.492 0 2.706-1.214 2.706-2.706 0-0.723-0.281-1.402-0.793-1.913zM12.903 24.774c-6.546 0-11.871-5.325-11.871-11.871s5.325-11.871 11.871-11.871c6.546 0 11.871 5.325 11.871 11.871s-5.325 11.871-11.871 11.871zM20.761 23.128c0.887-0.684 1.683-1.48 2.367-2.367l0.917 0.917-2.367 2.367-0.917-0.917zM29.294 30.968c-0.447 0-0.867-0.174-1.183-0.49l-5.703-5.703 2.367-2.367 5.703 5.703c0.316 0.316 0.49 0.737 0.49 1.183 0 0.923-0.751 1.674-1.674 1.674z"></path>
  <path fill="#c0c7cf" style="fill: var(--color1, #c0c7cf); stroke: var(--color1, #c0c7cf)" stroke="#c0c7cf" stroke-linejoin="miter" stroke-linecap="butt" stroke-miterlimit="4" stroke-width="0.6452" d="M12.903 5.026l-8.227 6.329h2.55v8.258h11.355v-8.258h2.55l-8.227-6.329zM14.452 18.581h-3.097v-2.581c0-0.854 0.695-1.548 1.548-1.548s1.548 0.695 1.548 1.548v2.581zM17.548 18.581h-2.064v-2.581c0-1.423-1.158-2.581-2.581-2.581s-2.581 1.158-2.581 2.581v2.581h-2.065v-7.226h9.29v7.226zM7.711 10.323l5.192-3.994 5.192 3.994h-10.385z"></path>
</svg>
