<svg xmlns="http://www.w3.org/2000/svg" viewBox="0 0 40 32">
  <path fill="#c0c7cf" style="fill: var(--color1, #c0c7cf); stroke: var(--color1, #c0c7cf)" stroke="#c0c7cf" stroke-linejoin="miter" stroke-linecap="butt" stroke-miterlimit="4" stroke-width="0.6452" d="M37.143 28.364v-17.455c-0.469 0.545-0.982 1.045-1.54 1.5-3.192 2.5-6.406 5.045-9.509 7.682-1.674 1.432-3.75 3.182-6.071 3.182h-0.045c-2.322 0-4.397-1.75-6.071-3.182-3.103-2.636-6.317-5.182-9.509-7.682-0.558-0.455-1.071-0.955-1.54-1.5v17.455c0 0.386 0.335 0.727 0.714 0.727h32.857c0.379 0 0.714-0.341 0.714-0.727zM37.143 4.477c0-0.568 0.134-1.568-0.714-1.568h-32.857c-0.379 0-0.714 0.341-0.714 0.727 0 2.591 1.272 4.841 3.281 6.455 2.991 2.386 5.982 4.796 8.951 7.204 1.183 0.977 3.326 3.068 4.888 3.068h0.045c1.563 0 3.705-2.091 4.888-3.068 2.969-2.409 5.96-4.818 8.951-7.204 1.451-1.159 3.281-3.682 3.281-5.614zM40 3.636v24.727c0 2-1.607 3.636-3.571 3.636h-32.857c-1.964 0-3.571-1.636-3.571-3.636v-24.727c0-2 1.607-3.636 3.571-3.636h32.857c1.964 0 3.571 1.636 3.571 3.636z"></path>
</svg>
