<svg xmlns="http://www.w3.org/2000/svg" viewBox="0 0 22 32">
  <path fill="#c0c7cf" style="fill: var(--color1, #c0c7cf); stroke: var(--color1, #c0c7cf)" stroke="#c0c7cf" stroke-linejoin="miter" stroke-linecap="butt" stroke-miterlimit="4" stroke-width="0.6452" d="M13.119 28.8c0-1.1-1.018-2-2.262-2s-2.262 0.9-2.262 2 1.018 2 2.262 2c1.244 0 2.262-0.9 2.262-2zM19 24.8v-17.6c0-0.425-0.424-0.8-0.905-0.8h-14.476c-0.481 0-0.905 0.375-0.905 0.8v17.6c0 0.425 0.424 0.8 0.905 0.8h14.476c0.481 0 0.905-0.375 0.905-0.8zM13.571 3.6c0-0.225-0.198-0.4-0.452-0.4h-4.524c-0.254 0-0.452 0.175-0.452 0.4s0.198 0.4 0.452 0.4h4.524c0.254 0 0.452-0.175 0.452-0.4zM21.714 3.2v25.6c0 1.75-1.64 3.2-3.619 3.2h-14.476c-1.979 0-3.619-1.45-3.619-3.2v-25.6c0-1.75 1.64-3.2 3.619-3.2h14.476c1.979 0 3.619 1.45 3.619 3.2z"></path>
</svg>
